<svg id="Layer_1" height="512" viewBox="0 0 150 150" width="512" xmlns="http://www.w3.org/2000/svg" data-name="Layer 1"><path d="m73.533 122.31q-8.151 0-16.265-.634c-3.405-.268-6.848-.655-10.232-1.155l-23.1-3.41a1 1 0 0 1 -.523-1.732c.009-.009 1.058-.958 2.576-2.669a49.523 49.523 0 0 0 12.361-32.948v-18.273a34.633 34.633 0 0 1 34.594-34.589h4.235a34.429 34.429 0 0 1 34.431 34.343v18.273a49.522 49.522 0 0 0 12.362 32.948c1.519 1.711 2.567 2.66 2.577 2.67a1 1 0 0 1 -.524 1.731l-23.1 3.409c-2.087.309-5.508.719-7.628.915l-2.611.242c-6.351.586-12.754.879-19.153.879zm-47.327-6.885 21.122 3.117c3.339.493 6.736.876 10.1 1.14a206.873 206.873 0 0 0 35.076-.244l2.612-.241c2.088-.193 5.462-.6 7.519-.9l21.122-3.117c-.371-.388-.8-.851-1.277-1.387a51.518 51.518 0 0 1 -12.87-34.277v-18.273a32.426 32.426 0 0 0 -32.43-32.349h-2.2-2.036a32.63 32.63 0 0 0 -32.594 32.595v18.273a51.518 51.518 0 0 1 -12.867 34.276c-.476.535-.906.999-1.277 1.387z"/><path d="m48.161 62.489a1 1 0 0 1 -1-1 25.811 25.811 0 0 1 25.783-25.782 1 1 0 0 1 0 2 23.81 23.81 0 0 0 -23.783 23.782 1 1 0 0 1 -1 1z"/><path d="m131.648 95.319a1 1 0 0 1 -.756-1.655c15.737-18.157.713-32.87.066-33.487a1 1 0 1 1 1.38-1.448c.172.165 17.036 16.665.066 36.246a1 1 0 0 1 -.756.344z"/><path d="m122.7 89.578a1 1 0 0 1 -.756-1.655c10.351-11.943.49-21.6.065-22a1 1 0 0 1 1.381-1.447c.117.112 11.65 11.394.066 24.761a1 1 0 0 1 -.756.341z"/><path d="m18.352 95.319a1 1 0 0 1 -.756-.344c-16.97-19.581-.106-36.081.066-36.246a1 1 0 0 1 1.381 1.447c-.646.619-15.64 15.368.065 33.488a1 1 0 0 1 -.756 1.655z"/><path d="m27.3 89.578a1 1 0 0 1 -.756-.345c-11.584-13.367-.051-24.649.066-24.761a1 1 0 0 1 1.382 1.446c-.424.406-10.255 10.1.064 22a1 1 0 0 1 -.756 1.655z"/><path d="m65.54 29.71a1 1 0 0 1 -1-.906c-.037-.384-.048-.768-.048-1.152 0-6.3 4.707-11.429 10.493-11.429s10.499 5.127 10.499 11.429c0 .374-.014.747-.05 1.121a1 1 0 1 1 -1.99-.193c.03-.309.04-.618.04-.928 0-5.2-3.811-9.429-8.494-9.429s-8.49 4.23-8.49 9.429c0 .322.009.643.039.964a1 1 0 0 1 -.9 1.089.75.75 0 0 1 -.099.005z"/><path d="m74.979 133.777c-8.877 0-16.1-5.591-16.1-12.465a1 1 0 0 1 2 0c0 5.77 6.326 10.465 14.1 10.465s14.1-4.695 14.1-10.465a1 1 0 0 1 2 0c0 6.874-7.223 12.465-16.1 12.465z"/></svg>