<svg id="Icons" height="512" viewBox="0 0 74 74" width="512" xmlns="http://www.w3.org/2000/svg"><path d="m35.431 12.52q-.037 0-.075 0c-.882-.065-1.79-.1-2.776-.1a1.035 1.035 0 0 1 -1.04-1 .967.967 0 0 1 .96-1h.08c1.036 0 1.993.034 2.924.1a1 1 0 0 1 -.073 2z"/><path d="m10.786 61.178a15.54 15.54 0 0 1 -3.937-.446 1 1 0 0 1 -.442-1.663c4.061-4.134 3.653-7.586 3.382-9.869-.02-.169-.039-.33-.056-.484-4.991-4.203-7.733-9.616-7.733-15.296 0-7.536 4.9-14.593 13.1-18.876a1 1 0 1 1 .926 1.772c-7.531 3.933-12.026 10.327-12.026 17.104 0 5.18 2.6 10.163 7.322 14.015a1 1 0 0 1 .365.7c.019.251.052.529.088.829a12.164 12.164 0 0 1 -2.712 10.13 19.115 19.115 0 0 0 14.868-5.237 1 1 0 0 1 .877-.235 37.485 37.485 0 0 0 7.772.8c.2 0 .387 0 .571-.009 15.449-.234 27.989-9.65 27.989-20.993a15.883 15.883 0 0 0 -1.5-6.7c-2.769-6.042-9.294-10.928-17.456-13.072a1 1 0 0 1 .508-1.934c8.735 2.294 15.75 7.592 18.765 14.17a17.865 17.865 0 0 1 1.683 7.536c0 12.64-13.14 22.739-29.925 22.99-.182.009-.408.01-.635.01a39.631 39.631 0 0 1 -7.692-.74 21.316 21.316 0 0 1 -14.102 5.498z"/><path d="m22.56 13.71a1 1 0 0 1 -.252-1.968c1.019-.265 2.033-.489 3.015-.666a1 1 0 0 1 .354 1.968c-.932.168-1.9.381-2.865.634a1 1 0 0 1 -.252.032z"/><path d="m64.7 63.594a17.372 17.372 0 0 1 -11.434-4.423 32.535 32.535 0 0 1 -6.152.581 30.338 30.338 0 0 1 -14.4-3.467 1 1 0 1 1 .951-1.76 28.32 28.32 0 0 0 13.444 3.227 30.454 30.454 0 0 0 6.235-.637 1 1 0 0 1 .875.235 15.418 15.418 0 0 0 11.494 4.2 9.957 9.957 0 0 1 -2-8.041c.029-.236.055-.454.07-.651a1 1 0 0 1 .363-.7c3.778-3.086 5.854-7.058 5.854-11.179 0-5.492-3.7-10.646-9.9-13.789a1 1 0 1 1 .9-1.784c6.89 3.494 11 9.312 11 15.573 0 4.612-2.218 9.022-6.257 12.46-.011.1-.023.2-.036.308-.217 1.807-.544 4.539 2.673 7.816a1 1 0 0 1 -.442 1.663 12.759 12.759 0 0 1 -3.238.368z"/><path d="m47.332 38.781a4.793 4.793 0 1 1 4.793-4.793 4.8 4.8 0 0 1 -4.793 4.793zm0-7.586a2.793 2.793 0 1 0 2.793 2.793 2.8 2.8 0 0 0 -2.793-2.788z"/><path d="m32.569 38.781a4.793 4.793 0 1 1 4.793-4.793 4.8 4.8 0 0 1 -4.793 4.793zm0-7.586a2.793 2.793 0 1 0 2.793 2.793 2.8 2.8 0 0 0 -2.793-2.788z"/><path d="m17.807 38.781a4.793 4.793 0 1 1 4.793-4.793 4.8 4.8 0 0 1 -4.793 4.793zm0-7.586a2.793 2.793 0 1 0 2.793 2.793 2.8 2.8 0 0 0 -2.793-2.788z"/></svg>