<?xml version="1.0" encoding="UTF-8"?>
<svg xmlns="http://www.w3.org/2000/svg" viewBox="0 0 74 74" width="512" height="512"><g id="Numbers"><text transform="translate(31.994 -17.877)" font-size="18" fill="red" font-family="ArialMT, Arial">7<tspan x="-5.005" y="124">17</tspan><tspan x="-5.005" y="248">27</tspan><tspan x="-5.005" y="372">37</tspan><tspan x="-5.005" y="496">47</tspan><tspan x="-5.005" y="620">57</tspan><tspan x="-5.005" y="744">67</tspan><tspan x="-5.005" y="868">77</tspan><tspan x="-5.005" y="992">87</tspan><tspan x="-5.005" y="1116">97</tspan><tspan x="-10.011" y="1240">107</tspan><tspan x="-9.343" y="1364" letter-spacing="-0.074em">1</tspan><tspan x="-0.668" y="1364">17</tspan><tspan x="-10.011" y="1488">127</tspan><tspan x="-10.011" y="1612">137</tspan><tspan x="-10.011" y="1736">147</tspan><tspan x="-10.011" y="1860">157</tspan><tspan x="-10.011" y="1984">167</tspan><tspan x="-10.011" y="2108">177</tspan><tspan x="-10.011" y="2232">187</tspan><tspan x="-10.011" y="2356">197</tspan><tspan x="-10.011" y="2480">207</tspan><tspan x="-10.011" y="2604">217</tspan><tspan x="-10.011" y="2728">227</tspan><tspan x="-10.011" y="2852">237</tspan><tspan x="-10.011" y="2976">247</tspan><tspan x="-10.011" y="3100">257</tspan><tspan x="-10.011" y="3224">267</tspan><tspan x="-10.011" y="3348">277</tspan><tspan x="-10.011" y="3472">287</tspan><tspan x="-10.011" y="3596">297</tspan></text></g><g id="Icons"><path d="M16.49,60.96a1,1,0,0,1-.726-.313A30.551,30.551,0,0,1,13.769,58.3a1,1,0,1,1,1.582-1.222,28.671,28.671,0,0,0,1.866,2.194,1,1,0,0,1-.727,1.687Z"/><path d="M41.347,71.82A34.891,34.891,0,0,1,21.2,65.387a1,1,0,0,1,1.152-1.635A33.038,33.038,0,0,0,63.906,60.9,35.018,35.018,0,0,1,33.265,4.776,33.106,33.106,0,0,0,8.583,40.625a1,1,0,0,1-.877,1.108A.985.985,0,0,1,6.6,40.856,35.092,35.092,0,0,1,35.7,2.224,1,1,0,0,1,36.6,3.879,33.017,33.017,0,0,0,66.468,58.573a1,1,0,0,1,.9,1.658A35.279,35.279,0,0,1,41.347,71.82Z"/><path d="M10.771,52.58a1,1,0,0,1-.9-.553,29.76,29.76,0,0,1-1.282-2.97,1,1,0,1,1,1.875-.694,27.919,27.919,0,0,0,1.2,2.77,1,1,0,0,1-.893,1.447Z"/><path d="M60.285,46.6a1.015,1.015,0,0,1-.466-.114L56,44.481,52.181,46.49a1,1,0,0,1-1.452-1.054l.73-4.254L48.368,38.17a1,1,0,0,1,.555-1.706l4.27-.62,1.911-3.87a1.041,1.041,0,0,1,1.792,0l1.911,3.87,4.27.62a1,1,0,0,1,.555,1.706l-3.091,3.012.73,4.254a1,1,0,0,1-.986,1.168ZM56,42.352a1.012,1.012,0,0,1,.466.114l2.491,1.31L58.481,41a1,1,0,0,1,.288-.885l2.015-1.965L58,37.748a1,1,0,0,1-.753-.548L56,34.676,54.754,37.2a1,1,0,0,1-.753.548l-2.785.4,2.015,1.965a1,1,0,0,1,.288.885l-.476,2.774,2.491-1.31A1.012,1.012,0,0,1,56,42.352Z"/><path d="M46.229,25.438a1,1,0,0,1-.466-.115L43,23.87l-2.763,1.453a1,1,0,0,1-1.451-1.054l.527-3.078-2.236-2.179a1,1,0,0,1,.555-1.706l3.09-.449,1.382-2.8a1.04,1.04,0,0,1,1.792,0l1.382,2.8,3.09.449a1,1,0,0,1,.555,1.706l-2.236,2.179.527,3.078a1,1,0,0,1-.985,1.169ZM43,21.74a1,1,0,0,1,.466.115l1.434.755-.273-1.6a1,1,0,0,1,.287-.885l1.161-1.132-1.6-.233a1,1,0,0,1-.753-.547L43,16.76l-.718,1.454a1,1,0,0,1-.753.547l-1.6.233,1.161,1.132a1,1,0,0,1,.287.885l-.273,1.6,1.434-.755A1,1,0,0,1,43,21.74Z"/></g></svg>
